<svg width="88" height="78" viewBox="0 0 88 78" fill="none" xmlns="http://www.w3.org/2000/svg">
<g id="Group 1">
<path id="Exclude" fill-rule="evenodd" clip-rule="evenodd" d="M36.241 62.2223C56.2564 62.2223 72.4821 48.2933 72.4821 31.1111C72.4821 13.9289 56.2564 0 36.241 0C16.2257 0 0 13.9289 0 31.1111C0 48.2933 16.2257 62.2223 36.241 62.2223ZM12.921 31.1063C12.921 24.9657 17.899 19.9878 24.0395 19.9878H48.4434C54.584 19.9878 59.5619 24.9657 59.5619 31.1063C59.5619 37.2469 54.584 42.2248 48.4434 42.2248H24.0395C17.899 42.2248 12.921 37.2469 12.921 31.1063ZM41.9494 30.9439L33.1916 35.8102L33.1918 26.0775L41.9494 30.9439Z" fill="#FB2020"/>
<path id="Rectangle 2" d="M58 52.5601L64.1102 48.871L87.0583 73.5964L80.9481 77.2855L58 52.5601Z" fill="#FB2020"/>
</g>
</svg>
